<?xml version="1.0" encoding="UTF-8"?><svg id="Layer_2" xmlns="http://www.w3.org/2000/svg" viewBox="0 0 512.42 403.64"><defs><style>.cls-1{fill:#fff;}.cls-2{fill:#efd8d3;}.cls-3{fill:#e2edee;}.cls-4{fill:#6a9ba2;}.cls-5{fill:#c4e3e8;}.cls-6{fill:#c67360;}.cls-7{fill:#5c9ca3;}</style></defs><g id="Layer_1-2"><g><path class="cls-3" d="m108.72,91.2l-8.88-15.58c-1.35-2.38-.67-5.49,1.53-6.95,2.2-1.46,5.08-.72,6.43,1.65l5.46,9.59,24.99-32.49c1.65-2.15,4.6-2.44,6.59-.66,1.99,1.78,2.26,4.97.61,7.12l-29.15,37.9c-2.05,2.66-5.9,2.36-7.58-.58h0Z"/><path class="cls-3" d="m137.01,273.03l-11.1-19.49c-1.69-2.97-.84-6.87,1.91-8.7,2.75-1.83,6.35-.9,8.05,2.07l6.83,11.99,31.25-40.63c2.06-2.69,5.75-3.05,8.24-.82,2.48,2.23,2.82,6.22.76,8.9l-36.46,47.4c-2.56,3.33-7.38,2.95-9.48-.73h0Z"/><path class="cls-3" d="m32.72,141.21l-6.77-11.88c-1.03-1.81-.51-4.19,1.17-5.3,1.68-1.12,3.87-.55,4.9,1.26l4.16,7.31,19.05-24.77c1.26-1.64,3.51-1.86,5.02-.5,1.51,1.36,1.72,3.79.46,5.43l-22.22,28.89c-1.56,2.03-4.5,1.8-5.78-.44h0Z"/><path class="cls-3" d="m9.29,236.96l-8.62-15.12c-1.31-2.31-.65-5.33,1.49-6.75,2.13-1.42,4.93-.7,6.24,1.6l5.3,9.31,24.25-31.53c1.6-2.08,4.47-2.37,6.39-.64,1.93,1.73,2.19,4.82.59,6.91l-28.29,36.78c-1.98,2.58-5.73,2.29-7.36-.56h0Z"/><path class="cls-3" d="m57.95,289.9l-6.15-10.8c-.94-1.65-.46-3.81,1.06-4.82,1.52-1.01,3.52-.5,4.46,1.15l3.79,6.64,17.32-22.52c1.14-1.49,3.19-1.69,4.56-.45,1.38,1.24,1.57,3.45.42,4.93l-20.2,26.27c-1.42,1.84-4.09,1.64-5.25-.4h0Z"/><path class="cls-3" d="m87.85,362.7l-7.1-12.46c-1.08-1.9-.54-4.39,1.22-5.56s4.06-.58,5.15,1.32l4.37,7.67,19.99-25.99c1.32-1.72,3.68-1.95,5.27-.52,1.59,1.43,1.81,3.98.49,5.69l-23.32,30.32c-1.64,2.13-4.72,1.89-6.06-.46h0Z"/><path class="cls-3" d="m91.62,185.24l-6.93-12.16c-1.06-1.86-.52-4.28,1.19-5.43,1.72-1.14,3.97-.56,5.02,1.29l4.26,7.48,19.5-25.36c1.29-1.68,3.59-1.9,5.14-.51,1.55,1.39,1.76,3.88.47,5.55l-22.75,29.58c-1.6,2.08-4.61,1.84-5.91-.45h0Z"/><g><path class="cls-1" d="m190.38,401.48c-10.29,0-18.66-8.64-18.66-19.25V21.42c0-10.62,8.37-19.25,18.66-19.25h301.21c10.29,0,18.66,8.64,18.66,19.25v360.8c0,10.62-8.37,19.25-18.66,19.25H190.38Z"/><path class="cls-7" d="m491.59,4.34c9.11,0,16.49,7.65,16.49,17.09v360.8c0,9.44-7.38,17.09-16.49,17.09H190.38c-9.11,0-16.49-7.65-16.49-17.09V21.42c0-9.44,7.38-17.09,16.49-17.09h301.21m0-4.34H190.38c-11.48,0-20.83,9.61-20.83,21.42v360.8c0,11.81,9.34,21.42,20.83,21.42h301.21c11.49,0,20.83-9.61,20.83-21.42V21.42c0-11.81-9.34-21.42-20.83-21.42h0Z"/></g><g><path class="cls-2" d="m313.43,131.58c-5.7,0-10.34-6.23-10.34-13.89s4.64-13.89,10.34-13.89h121.47c5.7,0,10.34,6.23,10.34,13.89s-4.64,13.89-10.34,13.89h-121.47Z"/><path class="cls-6" d="m434.9,105.76c4.54,0,8.37,5.46,8.37,11.92s-3.83,11.92-8.37,11.92h-121.47c-4.54,0-8.37-5.46-8.37-11.92s3.83-11.92,8.37-11.92h121.47m0-3.93h-121.47c-6.79,0-12.3,7.1-12.3,15.85s5.51,15.85,12.3,15.85h121.47c6.79,0,12.3-7.1,12.3-15.85s-5.51-15.85-12.3-15.85h0Z"/></g><g><path class="cls-2" d="m313.43,229.88c-5.7,0-10.34-6.23-10.34-13.89s4.64-13.89,10.34-13.89h121.47c5.7,0,10.34,6.23,10.34,13.89s-4.64,13.89-10.34,13.89h-121.47Z"/><path class="cls-6" d="m434.9,204.07c4.54,0,8.37,5.46,8.37,11.92s-3.83,11.92-8.37,11.92h-121.47c-4.54,0-8.37-5.46-8.37-11.92s3.83-11.92,8.37-11.92h121.47m0-3.93h-121.47c-6.79,0-12.3,7.1-12.3,15.85s5.51,15.85,12.3,15.85h121.47c6.79,0,12.3-7.1,12.3-15.85s-5.51-15.85-12.3-15.85h0Z"/></g><g><path class="cls-2" d="m313.43,328.18c-5.7,0-10.34-6.23-10.34-13.89s4.64-13.89,10.34-13.89h121.47c5.7,0,10.34,6.23,10.34,13.89s-4.64,13.89-10.34,13.89h-121.47Z"/><path class="cls-6" d="m434.9,302.37c4.54,0,8.37,5.46,8.37,11.92s-3.83,11.92-8.37,11.92h-121.47c-4.54,0-8.37-5.46-8.37-11.92s3.83-11.92,8.37-11.92h121.47m0-3.93h-121.47c-6.79,0-12.3,7.1-12.3,15.85s5.51,15.85,12.3,15.85h121.47c6.79,0,12.3-7.1,12.3-15.85s-5.51-15.85-12.3-15.85h0Z"/></g><path class="cls-4" d="m225.38,232.64l-13.05-22.91c-1.99-3.5-.98-8.07,2.25-10.23,3.23-2.15,7.47-1.06,9.46,2.43l8.03,14.1,36.74-47.77c2.43-3.16,6.76-3.59,9.68-.96,2.92,2.62,3.32,7.31.89,10.46l-42.86,55.73c-3.01,3.91-8.68,3.47-11.14-.85Z"/><path class="cls-4" d="m225.38,330.91l-13.05-22.91c-1.99-3.5-.98-8.07,2.25-10.23s7.47-1.06,9.46,2.43l8.03,14.1,36.74-47.77c2.43-3.16,6.76-3.59,9.68-.96,2.92,2.62,3.32,7.31.89,10.46l-42.86,55.73c-3.01,3.91-8.68,3.47-11.14-.85h0Z"/><path class="cls-4" d="m225.38,134.24l-13.05-22.91c-1.99-3.5-.98-8.07,2.25-10.23,3.23-2.15,7.47-1.06,9.46,2.43l8.03,14.1,36.74-47.77c2.43-3.16,6.76-3.59,9.68-.96,2.92,2.62,3.32,7.31.89,10.46l-42.86,55.73c-3.01,3.91-8.68,3.47-11.14-.85h0Z"/><path class="cls-5" d="m491.59,4.34h-33.44c9.11,0,16.49,7.65,16.49,17.09v360.8c0,9.44-7.38,17.09-16.49,17.09h33.44c9.11,0,16.49-7.65,16.49-17.09V21.42c0-9.44-7.38-17.09-16.49-17.09Z"/></g></g></svg>