<svg id="Layer_1" data-name="Layer 1" xmlns="http://www.w3.org/2000/svg" viewBox="0 0 235.00433 41.25721"><defs><style>.cls-1{fill:#424242;}.cls-2{fill:#424343;}.cls-3{fill:#addfe4;}.cls-4{fill:#fff;}.cls-5{fill:#4db2b4;}</style></defs><g id="Artwork_6" data-name="Artwork 6"><path class="cls-1" d="M83.12253,32.835a8.73664,8.73664,0,0,1,3.30078.59717,7.07972,7.07972,0,0,1,2.51758,1.69433,7.54089,7.54089,0,0,1,1.60547,2.66309,11.22881,11.22881,0,0,1,0,7.03662,7.61685,7.61685,0,0,1-1.60547,2.67139,7.02969,7.02969,0,0,1-2.51758,1.70264,9.46425,9.46425,0,0,1-6.61719,0,7.10717,7.10717,0,0,1-2.52637-1.70264,7.53271,7.53271,0,0,1-1.61328-2.67139,11.22881,11.22881,0,0,1,0-7.03662,7.45825,7.45825,0,0,1,1.61328-2.66309,7.15832,7.15832,0,0,1,2.52637-1.69433A8.77947,8.77947,0,0,1,83.12253,32.835Zm0,14.251a3.83391,3.83391,0,0,0,3.3164-1.49317,7.15519,7.15519,0,0,0,1.08985-4.26855,7.23475,7.23475,0,0,0-1.08985-4.28516,3.8187,3.8187,0,0,0-3.3164-1.50879,3.87712,3.87712,0,0,0-3.35742,1.50879,7.19819,7.19819,0,0,0-1.09668,4.28516,7.11915,7.11915,0,0,0,1.09668,4.26855A3.893,3.893,0,0,0,83.12253,47.08594Z" transform="translate(-24.3809 -18.18101)"/><path class="cls-1" d="M98.48679,36.14355a7.28728,7.28728,0,0,1,1.87207-2.46142,4.02777,4.02777,0,0,1,2.63086-.89551,3.97139,3.97139,0,0,1,1.001.12109,2.8149,2.8149,0,0,1,.83887.3628l-.24219,2.61474a.65141.65141,0,0,1-.20117.3794.58452.58452,0,0,1-.36328.10449,3.89616,3.89616,0,0,1-.69434-.08838,4.94041,4.94041,0,0,0-.95215-.08887,3.61889,3.61889,0,0,0-1.2832.21,3.08336,3.08336,0,0,0-1,.61328,4.0984,4.0984,0,0,0-.7832.98437,9.61944,9.61944,0,0,0-.62988,1.32324V49.55518H95.21042V33.09326H97.228a1.09664,1.09664,0,0,1,.75879.20166,1.24174,1.24174,0,0,1,.29.70215Z" transform="translate(-24.3809 -18.18101)"/><path class="cls-1" d="M118.98386,36.3208a1.78028,1.78028,0,0,1-.30664.32275.671.671,0,0,1-.41993.11329,1.05251,1.05251,0,0,1-.57226-.19385q-.29883-.19336-.71094-.42774a5.62358,5.62358,0,0,0-.99219-.42773,4.65825,4.65825,0,0,0-1.45215-.19336,4.55279,4.55279,0,0,0-1.97753.40332,3.84524,3.84524,0,0,0-1.41993,1.15381,5.10413,5.10413,0,0,0-.85547,1.82373,9.48691,9.48691,0,0,0-.28222,2.41309,9.0397,9.0397,0,0,0,.30664,2.46923,5.32664,5.32664,0,0,0,.87891,1.82373,3.78857,3.78857,0,0,0,1.38867,1.12989,4.20965,4.20965,0,0,0,1.83105.3872,4.6103,4.6103,0,0,0,1.63086-.24218,5.009,5.009,0,0,0,1.04883-.53272q.419-.29.71777-.53222a.99553.99553,0,0,1,.6377-.24219.74048.74048,0,0,1,.64551.32275l.98437,1.2749a6.44832,6.44832,0,0,1-1.32324,1.22657,7.48485,7.48485,0,0,1-1.5332.81494,8.06609,8.06609,0,0,1-1.67872.45215,11.31037,11.31037,0,0,1-1.75878.1372,7.17358,7.17358,0,0,1-2.86524-.57324,6.68227,6.68227,0,0,1-2.32324-1.66211,7.91516,7.91516,0,0,1-1.56641-2.66308,10.45707,10.45707,0,0,1-.57226-3.59082,10.67258,10.67258,0,0,1,.5166-3.38135,7.66175,7.66175,0,0,1,1.50879-2.687,6.85562,6.85562,0,0,1,2.46094-1.76758,8.44906,8.44906,0,0,1,3.38964-.63721,7.98775,7.98775,0,0,1,3.15528.58106,7.64269,7.64269,0,0,1,2.42871,1.646Z" transform="translate(-24.3809 -18.18101)"/><path class="cls-1" d="M127.08542,35.0459a8.77147,8.77147,0,0,1,2.22754-1.606,6.23959,6.23959,0,0,1,2.82422-.605,5.86381,5.86381,0,0,1,2.38086.45166A4.75284,4.75284,0,0,1,136.2446,34.562a5.487,5.487,0,0,1,1.05762,1.977,8.6257,8.6257,0,0,1,.35449,2.54151V49.55518h-3.45313V39.08057a3.924,3.924,0,0,0-.7666-2.582,2.86435,2.86435,0,0,0-2.332-.91993,4.483,4.483,0,0,0-2.15527.53272,7.39834,7.39834,0,0,0-1.86426,1.45215v11.9917h-3.46973V25.669h3.46973Z" transform="translate(-24.3809 -18.18101)"/><path class="cls-1" d="M146.728,28.12207a2.18,2.18,0,0,1-.18555.8877,2.34674,2.34674,0,0,1-.50879.73437,2.4879,2.4879,0,0,1-.75.50049,2.27558,2.27558,0,0,1-.91211.18555,2.11775,2.11775,0,0,1-.87988-.18555,2.31782,2.31782,0,0,1-.71777-.50049,2.45406,2.45406,0,0,1-.49219-.73437,2.16408,2.16408,0,0,1-.18555-.8877,2.20619,2.20619,0,0,1,.18555-.90381,2.46012,2.46012,0,0,1,.49219-.73437,2.32434,2.32434,0,0,1,.71777-.5,2.1176,2.1176,0,0,1,.87988-.18555,2.27541,2.27541,0,0,1,.91211.18555,2.49523,2.49523,0,0,1,.75.5,2.35227,2.35227,0,0,1,.50879.73437A2.22223,2.22223,0,0,1,146.728,28.12207Zm-.58106,4.97119V49.55518h-3.4707V33.09326Z" transform="translate(-24.3809 -18.18101)"/><path class="cls-1" d="M165.28757,25.669V49.55518h-2.09766a.84194.84194,0,0,1-.88769-.66163l-.30665-1.7915a8.68478,8.68478,0,0,1-2.34863,1.95264,6.11564,6.11564,0,0,1-3.05859.74267,5.61269,5.61269,0,0,1-2.51758-.55713,5.41978,5.41978,0,0,1-1.93652-1.62158,7.85906,7.85906,0,0,1-1.251-2.63916,13.31731,13.31731,0,0,1-.44336-3.60693,11.30018,11.30018,0,0,1,.49219-3.40527,8.3178,8.3178,0,0,1,1.41211-2.71973,6.43738,6.43738,0,0,1,5.18066-2.46094,5.56966,5.56966,0,0,1,4.293,1.74268V25.669ZM161.81784,37.144a4.08068,4.08068,0,0,0-1.59766-1.30713,4.76936,4.76936,0,0,0-1.88867-.37158,3.78206,3.78206,0,0,0-3.17871,1.49317,7.16521,7.16521,0,0,0-1.14648,4.41406,11.18173,11.18173,0,0,0,.25879,2.59033,4.99209,4.99209,0,0,0,.74218,1.751,2.85565,2.85565,0,0,0,1.17774.98486,3.8404,3.8404,0,0,0,1.56543.30664,4.37371,4.37371,0,0,0,2.28418-.57324,6.58039,6.58039,0,0,0,1.7832-1.62207Z" transform="translate(-24.3809 -18.18101)"/><path class="cls-1" d="M173.95944,36.6958a9.2676,9.2676,0,0,1,2.60352-2.21533,6.55821,6.55821,0,0,1,3.28222-.82666,6.18753,6.18753,0,0,1,2.38868.42969,4.39314,4.39314,0,0,1,1.71191,1.24023,5.50025,5.50025,0,0,1,1.02441,1.95068,8.85394,8.85394,0,0,1,.34766,2.57911V50.36865H183.73V39.85352a5.63774,5.63774,0,0,0-1.05762-3.62891,3.89183,3.89183,0,0,0-3.22363-1.31445,5.83988,5.83988,0,0,0-3.001.81836,8.48129,8.48129,0,0,0-2.48828,2.27343v12.3667h-1.58691V26.313h1.58691Z" transform="translate(-24.3809 -18.18101)"/><path class="cls-1" d="M191.94772,41.49023v.31446a11.13868,11.13868,0,0,0,.42969,3.25683,6.66127,6.66127,0,0,0,1.22363,2.356,5.04558,5.04558,0,0,0,1.918,1.43018,6.339,6.339,0,0,0,2.5127.47949,7.51538,7.51538,0,0,0,2.14941-.273,8.00081,8.00081,0,0,0,1.5293-.61182,8.35634,8.35634,0,0,0,.9834-.61133,1.11247,1.11247,0,0,1,.52929-.27294.38267.38267,0,0,1,.33106.165l.42969.5293a4.5079,4.5079,0,0,1-1.04981.92578,7.5191,7.5191,0,0,1-1.45508.73584,10.57,10.57,0,0,1-1.71972.4878,9.47205,9.47205,0,0,1-1.84375.18164,7.82156,7.82156,0,0,1-3.07422-.58692,6.507,6.507,0,0,1-2.38086-1.71094,7.76422,7.76422,0,0,1-1.5293-2.75293,11.87714,11.87714,0,0,1-.53808-3.728,10.14651,10.14651,0,0,1,.50488-3.26514A7.46149,7.46149,0,0,1,192.353,35.96a6.62607,6.62607,0,0,1,2.33105-1.69434,7.65564,7.65564,0,0,1,3.13281-.61181,6.84616,6.84616,0,0,1,2.57911.47949,5.8362,5.8362,0,0,1,2.0664,1.397,6.59143,6.59143,0,0,1,1.38086,2.25684,8.6967,8.6967,0,0,1,.50391,3.07519.88571.88571,0,0,1-.09864.4961.38724.38724,0,0,1-.33105.13183Zm10.97754-1.0083a7.07475,7.07475,0,0,0-.37207-2.37255,5.03708,5.03708,0,0,0-1.0498-1.77735,4.58381,4.58381,0,0,0-1.61133-1.11572,5.317,5.317,0,0,0-2.05859-.38867,6.185,6.185,0,0,0-2.28125.397,4.99062,4.99062,0,0,0-1.74512,1.14062,5.7118,5.7118,0,0,0-1.18164,1.78565,8.31333,8.31333,0,0,0-.59571,2.331Z" transform="translate(-24.3809 -18.18101)"/><path class="cls-1" d="M208.94284,36.24951a9.56279,9.56279,0,0,1,2.71191-1.95068,7.55526,7.55526,0,0,1,3.22364-.66162,5.87647,5.87647,0,0,1,2.31445.42187,4.283,4.283,0,0,1,1.64551,1.20654,5.29938,5.29938,0,0,1,.9834,1.90137,8.73656,8.73656,0,0,1,.33105,2.48828V50.36865h-.6289a.56625.56625,0,0,1-.61133-.46289l-.23145-2.11621A17.28488,17.28488,0,0,1,217.33347,48.98a8.058,8.058,0,0,1-1.39747.89258,7.1184,7.1184,0,0,1-1.57031.562,8.07916,8.07916,0,0,1-1.85156.19873,5.46382,5.46382,0,0,1-1.63672-.248,4.13475,4.13475,0,0,1-1.41406-.76074,3.68,3.68,0,0,1-.99121-1.31445,4.545,4.545,0,0,1-.37207-1.92578,3.42206,3.42206,0,0,1,.59472-1.93457A4.88263,4.88263,0,0,1,210.563,42.896a12.3966,12.3966,0,0,1,3.26562-1.05811,28.34655,28.34655,0,0,1,4.78614-.46338V39.65527a5.51314,5.51314,0,0,0-.9834-3.51318,3.51271,3.51271,0,0,0-2.918-1.23193,5.50183,5.50183,0,0,0-2.02539.33105,7.18339,7.18339,0,0,0-1.41406.727,8.92984,8.92984,0,0,0-.94239.72754,1.01863,1.01863,0,0,1-.61133.33057.5007.5007,0,0,1-.29785-.08252.737.737,0,0,1-.19824-.21485Zm9.67188,6.167a30.9599,30.9599,0,0,0-4.042.37159,11.66707,11.66707,0,0,0-2.79394.78564,4.16705,4.16705,0,0,0-1.62891,1.18213,2.49138,2.49138,0,0,0-.5293,1.562,3.435,3.435,0,0,0,.27344,1.43018,2.78042,2.78042,0,0,0,.72754.99218,2.89349,2.89349,0,0,0,1.04981.57032,4.20274,4.20274,0,0,0,1.23925.18164,7.02411,7.02411,0,0,0,1.76075-.20655,6.50275,6.50275,0,0,0,1.48828-.57861,7.26324,7.26324,0,0,0,1.28125-.88428q.59472-.51268,1.17383-1.10791Z" transform="translate(-24.3809 -18.18101)"/><path class="cls-1" d="M227.97214,26.313V50.36865h-1.58692V26.313Z" transform="translate(-24.3809 -18.18101)"/><path class="cls-1" d="M238.83444,50.6333a3.536,3.536,0,0,1-2.60351-.92578,3.87527,3.87527,0,0,1-.93457-2.86035V35.60449H232.9321a.44062.44062,0,0,1-.29785-.09912.349.349,0,0,1-.11524-.28076v-.61182l2.81055-.19824.39648-5.88574a.60143.60143,0,0,1,.13282-.26465.34833.34833,0,0,1,.28125-.11572h.74316v6.28222h5.19141v1.17383h-5.19141V46.76465a3.4986,3.4986,0,0,0,.17383,1.16553,2.17893,2.17893,0,0,0,.47949.80175,1.87514,1.87514,0,0,0,.71973.46289,2.61369,2.61369,0,0,0,.89258.14893,2.72877,2.72877,0,0,0,1.02441-.17383,4.18888,4.18888,0,0,0,.74414-.38037,4.67178,4.67178,0,0,0,.5127-.37988.56646.56646,0,0,1,.31445-.17383.36014.36014,0,0,1,.26465.16553l.42968.69433a4.58512,4.58512,0,0,1-1.5957,1.11573A4.97287,4.97287,0,0,1,238.83444,50.6333Z" transform="translate(-24.3809 -18.18101)"/><path class="cls-1" d="M248.02682,36.6958a9.26774,9.26774,0,0,1,2.60352-2.21533,6.55827,6.55827,0,0,1,3.28223-.82666,6.18748,6.18748,0,0,1,2.38867.42969,4.39314,4.39314,0,0,1,1.71191,1.24023,5.50042,5.50042,0,0,1,1.02442,1.95068,8.85429,8.85429,0,0,1,.34765,2.57911V50.36865h-1.58789V39.85352a5.6378,5.6378,0,0,0-1.05761-3.62891,3.89185,3.89185,0,0,0-3.22364-1.31445,5.83988,5.83988,0,0,0-3.001.81836,8.48132,8.48132,0,0,0-2.48829,2.27343v12.3667h-1.58691V26.313h1.58691Z" transform="translate(-24.3809 -18.18101)"/><path class="cls-2" d="M65.42879,36.78221a23.08022,23.08022,0,0,0-.489-2.955,19.478,19.478,0,0,0-5.732-9.948,18.56383,18.56383,0,0,0-13.405-5.51c-1,.017-2.005-.038-2.998.051a18.80251,18.80251,0,0,0-7.389,2.207,20.814,20.814,0,0,0-10.596,22.353,20.79476,20.79476,0,0,0,6.233,10.926,19.46647,19.46647,0,0,0,9.942,5.093,19.46661,19.46661,0,0,0,9.053-.193,20.40815,20.40815,0,0,0,13.558-11.033,17.00241,17.00241,0,0,0,1.599-4.835,18.139,18.139,0,0,0,.216-3.881c-.043-.756.081-1.524.008-2.275m-38.985-.103a20.70159,20.70159,0,0,1,1.048-4.326,18.64866,18.64866,0,0,1,14.095-11.954,18.10321,18.10321,0,0,1,12.502,2.011,2.863,2.863,0,0,1,.809.682,12.0074,12.0074,0,0,1,2.674,6.682c.055.586.072,1.176.106,1.764.004.076.001.152.001.228a8.49993,8.49993,0,0,0-5.908-4.29,7.75341,7.75341,0,0,0-6.925,2.129c-.249-.182-.5-.361-.746-.549a8.16374,8.16374,0,0,0-3.766-1.633,7.57563,7.57563,0,0,0-4.092.533,18.13876,18.13876,0,0,0-8.42,7.112c-.3.463-1.174,2.162-1.439,2.648Zm29.984.91a17.49786,17.49786,0,0,1-4.837,9.139,24.72242,24.72242,0,0,1-6.417,4.691.69394.69394,0,0,1-.687.025,22.907,22.907,0,0,1-8.462-7.126,16.3766,16.3766,0,0,1-2.892-7.156,6.98425,6.98425,0,0,1,1.771-6.052,5.63621,5.63621,0,0,1,3.205-1.649,5.84264,5.84264,0,0,1,5.631,2.006c.329.352.652.709,1.005,1.092.349-.38.677-.731.998-1.09a6.00514,6.00514,0,0,1,4.798-2.211,5.88017,5.88017,0,0,1,5.245,3.334,7.3421,7.3421,0,0,1,.642,4.997m-7.723,19.526a18.75719,18.75719,0,0,1-6.049.253,18.35457,18.35457,0,0,1-7.776-2.919,18.03939,18.03939,0,0,1-6.492-7.191,7.08814,7.08814,0,0,1-.977-2.616,16.02172,16.02172,0,0,1,2.144-9.087c.359-.603.812-1.151,1.21-1.733a.35614.35614,0,0,1,.57-.096c-.05.398-.113.803-.152,1.21a13.59974,13.59974,0,0,0,.936,5.876,20.037,20.037,0,0,0,5.262,7.911,29.64271,29.64271,0,0,0,10.685,6.32c1.119.397,2.251.752,3.377,1.127.05.016.098.037.189.073a11.42073,11.42073,0,0,1-2.927.872m10.018-5.536a17.55027,17.55027,0,0,1-3.846,3.144,1.03807,1.03807,0,0,1-.818.124,44.5496,44.5496,0,0,1-6.243-1.893c-.249-.098-.49-.212-.782-.339.725-.472,1.419-.91,2.099-1.368a22.13061,22.13061,0,0,0,7.386-8.05,22.92146,22.92146,0,0,0,2.284-6.88,29.41439,29.41439,0,0,0,.397-5.791c-.031-1.114-.126-2.228-.209-3.341-.02-.266-.002-.463.352-.507.178.22.383.464.576.717a18.13811,18.13811,0,0,1,3.7,8.891,18.41969,18.41969,0,0,1-4.896,15.293" transform="translate(-24.3809 -18.18101)"/><path class="cls-2" d="M44.9789,18.181a20.5975,20.5975,0,1,0,20.597,20.597,20.5971,20.5971,0,0,0-20.597-20.597m11.449,19.408a17.50071,17.50071,0,0,1-4.837,9.14,24.74542,24.74542,0,0,1-6.417,4.691.69139.69139,0,0,1-.687.024,22.91643,22.91643,0,0,1-8.462-7.126,16.36557,16.36557,0,0,1-2.892-7.155,6.98538,6.98538,0,0,1,1.771-6.053,5.63621,5.63621,0,0,1,3.205-1.649,5.84264,5.84264,0,0,1,5.631,2.006c.329.352.652.709,1.005,1.093.349-.381.677-.732.998-1.091a6.00767,6.00767,0,0,1,4.798-2.212,5.88468,5.88468,0,0,1,5.245,3.335,7.342,7.342,0,0,1,.642,4.997" transform="translate(-24.3809 -18.18101)"/><path class="cls-3" d="M27.0177,36.52011c.265-.486.509-.986.804-1.453,4.847-7.659,11.098-7.858,12.512-7.644a8.16733,8.16733,0,0,1,3.767,1.633c.245.188.497.367.745.549a7.75341,7.75341,0,0,1,6.925-2.129,8.5028,8.5028,0,0,1,5.908,4.29,13.754,13.754,0,0,0-.469-5.788q-.13349-.4545-.309-.925c-.071-.192-.149-.387-.232-.582-.021-.048-.068-.14-.131-.251-.054-.095-.119-.202-.188-.306a9.53111,9.53111,0,0,0-.812-.761,11.81439,11.81439,0,0,0-1.348-.821,18.98009,18.98009,0,0,0-22.357,3.208,18.59678,18.59678,0,0,0-4.341,6.813,20.76431,20.76431,0,0,0-1.048,4.326,9.18,9.18,0,0,0-.061,1.037" transform="translate(-24.3809 -18.18101)"/><path class="cls-4" d="M58.8898,27.14071a27.05243,27.05243,0,0,1,.31,3.386,29.41515,29.41515,0,0,1-.397,5.791,22.95632,22.95632,0,0,1-2.283,6.88,22.139,22.139,0,0,1-7.387,8.049c-.68.459-1.793,1.21-2.518,1.683.292.127.534.241.782.338a44.29748,44.29748,0,0,0,6.244,1.893,1.02692,1.02692,0,0,0,.817-.124,21.39361,21.39361,0,0,0,4.265-3.458,18.42076,18.42076,0,0,0,4.896-15.293,18.142,18.142,0,0,0-3.7-8.891,13.26128,13.26128,0,0,0-1.508-1.872,13.9273,13.9273,0,0,1,.479,1.618" transform="translate(-24.3809 -18.18101)"/><path class="cls-5" d="M31.3077,33.93321c-.051.33-.092.667-.125,1.003a13.59974,13.59974,0,0,0,.936,5.876,20.037,20.037,0,0,0,5.262,7.911,29.62608,29.62608,0,0,0,10.685,6.319c1.119.398,2.252.753,3.377,1.128.05.016.098.037.189.073a11.409,11.409,0,0,1-2.927.872,18.756,18.756,0,0,1-6.049.253,18.35457,18.35457,0,0,1-7.776-2.919c-2.807-1.819-5.591-4.828-6.492-7.191a12.83328,12.83328,0,0,1,1.225-12.293,12.26266,12.26266,0,0,1,2.12-2.305,5.23269,5.23269,0,0,0-.425,1.273" transform="translate(-24.3809 -18.18101)"/></g></svg>